<svg xmlns="http://www.w3.org/2000/svg" version="1.1" xmlns:xlink="http://www.w3.org/1999/xlink" xmlns:svgjs="http://svgjs.dev/svgjs" width="1500" height="1500" viewBox="0 0 1500 1500"><rect width="1500" height="1500" fill="#ffffff"></rect><g transform="matrix(0.6666666666666666,0,0,0.6666666666666666,249.39393939393938,658.5652034915652)"><svg viewBox="0 0 396 72" data-background-color="#97978d" preserveAspectRatio="xMidYMid meet" height="272" width="1500" xmlns="http://www.w3.org/2000/svg" xmlns:xlink="http://www.w3.org/1999/xlink"><g id="tight-bounds" transform="matrix(1,0,0,1,0.2400000000000091,0.30499273129032645)"><svg viewBox="0 0 395.52 71.39001453741932" height="71.39001453741932" width="395.52"><g><svg viewBox="0 0 395.52 71.39001453741932" height="71.39001453741932" width="395.52"><g><svg viewBox="0 0 395.52 71.39001453741932" height="71.39001453741932" width="395.52"><g id="textblocktransform"><svg viewBox="0 0 395.52 71.39001453741932" height="71.39001453741932" width="395.52" id="textblock"><g><svg viewBox="0 0 395.52 71.39001453741932" height="71.39001453741932" width="395.52"><g transform="matrix(1,0,0,1,0,0)"><svg width="395.52" viewBox="2.2 -37.11 209.90999999999997 37.89" height="71.39001453741932" data-palette-color="#ffffff"><path d="M11.67 0.63L8.79 0.63Q8.11 0.63 7.2 0.67 6.3 0.71 5.81 0.73 5.32 0.76 4.7 0.72 4.08 0.68 3.76 0.55 3.44 0.42 3.09 0.15 2.73-0.12 2.58-0.59 2.42-1.05 2.31-1.73 2.2-2.42 2.2-3.37L2.2-3.37Q2.2-8.64 2.39-17.76 2.59-26.88 2.59-31.15L2.59-31.15Q2.59-36.43 3.13-36.72L3.13-36.72 12.21-36.72Q14.62-36.72 15.81-36.44 16.99-36.16 17.38-35.6 17.77-35.03 17.77-33.89L17.77-33.89Q17.77-33.54 17.72-32.56 17.68-31.57 17.68-30.91L17.68-30.91 17.68-29.79Q17.68-29 17.6-27.44 17.53-25.88 17.53-25.1L17.53-25.1 17.53-24.61Q17.58-24.46 17.58-24.22L17.58-24.22 18.55-24.22Q18.97-24.22 19.82-24.19 20.68-24.17 21.09-24.17L21.09-24.17Q22.22-24.17 22.75-24.32L22.75-24.32 22.75-34.47Q22.75-35.69 22.88-36.22 23-36.74 23.22-36.88 23.44-37.01 24.02-37.01L24.02-37.01Q24.34-37.01 25.05-36.99 25.76-36.96 26.07-36.96L26.07-36.96 27.88-37.04Q29.71-37.11 31.15-37.11L31.15-37.11Q37.79-37.11 37.79-35.64L37.79-35.64Q37.79-35.25 37.82-34.52 37.84-33.79 37.84-33.4L37.84-33.4Q37.84-32.54 37.82-30.91 37.79-29.27 37.79-28.42L37.79-28.42Q37.79-25.88 37.87-20.85 37.94-15.82 37.94-13.28L37.94-13.28Q37.94-13.06 37.92-12.73 37.89-12.4 37.89-12.3L37.89-12.3 37.89-11.13Q37.89-9.57 37.94-8.79L37.94-8.79 37.94-8.25Q37.89-8.15 37.89-7.96L37.89-7.96Q37.89-6.67 37.94-4.03 37.99-1.39 37.99-0.1L37.99-0.1Q37.82 0.78 33.3 0.78L33.3 0.78 23.14 0.78 22.41-0.24 22.41-1.86Q22.41-3.49 22.44-6.69 22.46-9.89 22.46-11.52L22.46-11.52Q22.46-12.08 22.33-12.29 22.19-12.5 21.78-12.5L21.78-12.5 20.9-12.5Q19.24-12.5 17.87-12.3L17.87-12.3Q17.87-10.28 17.82-6.21 17.77-2.15 17.77-0.1L17.77-0.1Q17.48 0.63 11.67 0.63L11.67 0.63ZM61.37-6.05L53.85-6.05Q53.68-5.49 53.53-4.58 53.37-3.66 53.23-3.14 53.1-2.61 52.78-2.04 52.46-1.46 51.82-1.2 51.17-0.93 50.14-0.93L50.14-0.93 39.6-0.93 39.6-1.76Q40.89-5.64 43.37-13.67 45.85-21.7 47.21-25.83L47.21-25.83 47.21-25.78Q48.04-28.15 49.66-33.2L49.66-33.2Q49.68-33.25 49.73-33.33L49.73-33.33Q49.95-33.69 50.14-33.89L50.14-33.89 63.33-33.79Q66.7-33.79 67.04-33.2L67.04-33.2 67.04-32.57Q67.09-32.35 67.58-31.45L67.58-31.45Q69.94-24.19 71.04-20.9L71.04-20.9 71.04-20.61Q71.14-19.9 71.48-18.99 71.82-18.09 72.3-17.05 72.78-16.02 72.97-15.43L72.97-15.43 73.95-11.91Q74.8-9.08 76.46-4.35L76.46-4.35 76.46-4.39 76.46-3.91Q76.54-3.56 76.83-2.98 77.12-2.39 77.19-2.15L77.19-2.15Q77.19-1.46 76.91-1.27 76.63-1.07 75.83-1.07L75.83-1.07 64.5-1.07Q64.08-1.12 63.96-1.15 63.84-1.17 63.58-1.25 63.33-1.32 63.22-1.44 63.11-1.56 63.08-1.76L63.08-1.76 62.16-5.47Q62.06-5.93 61.96-5.99 61.86-6.05 61.37-6.05L61.37-6.05ZM55.03-14.65L55.03-14.75 55.03-14.65ZM60.4-17.68L60.4-17.68Q60.25-18.36 59.97-19.89 59.69-21.41 59.42-22.55 59.15-23.68 58.84-24.66L58.84-24.66 58.84-25.83Q58.64-26.34 58.15-26.56L58.15-26.56 58.15-26.51Q57.57-26.39 56.98-23.24L56.98-23.24 56.98-22.07Q56.93-21.9 56.76-21.75 56.59-21.61 56.59-21.58L56.59-21.58Q55.78-18.02 55.27-15.82L55.27-15.82Q55.27-15.58 55.15-14.97 55.03-14.36 55.03-14.26L55.03-14.26 61.08-14.26Q61.08-14.89 60.64-16.55L60.64-16.55 60.64-17.09Q60.62-17.16 60.51-17.37 60.4-17.58 60.4-17.68ZM97.65-24.12L97.65-24.12Q96.99-24.12 96.58-24.32 96.16-24.51 95.92-24.8 95.67-25.1 95.37-25.39 95.06-25.68 94.4-25.88 93.75-26.07 92.72-26.07L92.72-26.07Q92.4-26.07 91.95-26.01 91.5-25.95 90.96-25.68 90.42-25.42 90.42-25L90.42-25Q90.42-24.54 90.88-24.21 91.33-23.88 91.9-23.74 92.48-23.61 93.2-23.43 93.92-23.24 94.21-23.1L94.21-23.1 97.8-22.22Q99.38-21.78 100.65-21.29 101.92-20.8 103.35-19.96 104.78-19.12 105.73-18.09 106.68-17.07 107.32-15.52 107.95-13.96 107.95-12.11L107.95-12.11Q107.95-9.86 107.37-8.11L107.37-8.11 107.37-8.15Q106.86-6.59 105.93-5.36 105-4.13 103.73-3.31 102.46-2.49 101.17-1.94 99.87-1.39 98.18-1.06 96.48-0.73 95.15-0.57 93.82-0.42 92.08-0.29L92.08-0.29Q84.39-0.68 81.78-2.73L81.78-2.73 81.78-3.03Q79.56-4.69 78.5-6.64 77.44-8.59 77.24-11.04L77.24-11.04Q77.24-11.62 77.78-11.62L77.78-11.62Q77.92-11.62 78.22-11.6 78.51-11.57 78.66-11.57L78.66-11.57 81.15-11.57Q81.49-11.62 82.12-11.62L82.12-11.62 82.76-11.62Q82.95-11.62 83.1-11.57L83.1-11.57Q84.52-11.62 87.93-11.62L87.93-11.62 89.06-11.62Q89.55-11.62 89.81-11.33 90.08-11.04 90.24-10.61 90.4-10.18 90.61-9.75 90.82-9.33 91.35-9.03 91.89-8.74 92.77-8.74L92.77-8.74Q93.72-8.74 94.49-9.24 95.26-9.74 95.26-10.69L95.26-10.69Q95.26-11.13 94.84-11.52 94.43-11.91 93.6-12.23 92.77-12.55 92.12-12.74 91.47-12.94 90.38-13.21 89.28-13.48 88.96-13.57L88.96-13.57 87.5-13.57Q82.2-15.14 79.87-17.54 77.53-19.95 77.53-23.63L77.53-23.63Q77.53-26.07 78.45-28.03 79.37-29.98 80.87-31.23 82.37-32.47 84.39-33.31 86.42-34.16 88.52-34.51 90.62-34.86 92.87-34.86L92.87-34.86Q96.85-34.86 100.25-33.53 103.66-32.2 105.41-30.08L105.41-30.08Q106.05-29.44 106.44-28.47 106.83-27.49 106.94-26.92 107.05-26.34 107.22-25L107.22-25 106.54-24.02 102.39-24.02Q101.7-24.02 100.12-24.07 98.53-24.12 97.65-24.12ZM129.73-24.12L129.73-24.12Q129.07-24.12 128.65-24.32 128.24-24.51 128-24.8 127.75-25.1 127.45-25.39 127.14-25.68 126.48-25.88 125.82-26.07 124.8-26.07L124.8-26.07Q124.48-26.07 124.03-26.01 123.58-25.95 123.04-25.68 122.5-25.42 122.5-25L122.5-25Q122.5-24.54 122.95-24.21 123.41-23.88 123.98-23.74 124.55-23.61 125.27-23.43 125.99-23.24 126.29-23.1L126.29-23.1 129.88-22.22Q131.46-21.78 132.73-21.29 134-20.8 135.43-19.96 136.86-19.12 137.81-18.09 138.76-17.07 139.4-15.52 140.03-13.96 140.03-12.11L140.03-12.11Q140.03-9.86 139.45-8.11L139.45-8.11 139.45-8.15Q138.93-6.59 138.01-5.36 137.08-4.13 135.81-3.31 134.54-2.49 133.24-1.94 131.95-1.39 130.25-1.06 128.56-0.73 127.23-0.57 125.9-0.42 124.16-0.29L124.16-0.29Q116.47-0.68 113.86-2.73L113.86-2.73 113.86-3.03Q111.64-4.69 110.58-6.64 109.51-8.59 109.32-11.04L109.32-11.04Q109.32-11.62 109.86-11.62L109.86-11.62Q110-11.62 110.3-11.6 110.59-11.57 110.73-11.57L110.73-11.57 113.22-11.57Q113.57-11.62 114.2-11.62L114.2-11.62 114.84-11.62Q115.03-11.62 115.18-11.57L115.18-11.57Q116.59-11.62 120.01-11.62L120.01-11.62 121.14-11.62Q121.62-11.62 121.89-11.33 122.16-11.04 122.32-10.61 122.48-10.18 122.69-9.75 122.89-9.33 123.43-9.03 123.97-8.74 124.85-8.74L124.85-8.74Q125.8-8.74 126.57-9.24 127.34-9.74 127.34-10.69L127.34-10.69Q127.34-11.13 126.92-11.52 126.51-11.91 125.68-12.23 124.85-12.55 124.2-12.74 123.55-12.94 122.45-13.21 121.35-13.48 121.04-13.57L121.04-13.57 119.57-13.57Q114.27-15.14 111.94-17.54 109.61-19.95 109.61-23.63L109.61-23.63Q109.61-26.07 110.53-28.03 111.44-29.98 112.94-31.23 114.45-32.47 116.47-33.31 118.5-34.16 120.6-34.51 122.7-34.86 124.94-34.86L124.94-34.86Q128.92-34.86 132.33-33.53 135.73-32.2 137.49-30.08L137.49-30.08Q138.13-29.44 138.52-28.47 138.91-27.49 139.02-26.92 139.13-26.34 139.3-25L139.3-25 138.62-24.02 134.47-24.02Q133.78-24.02 132.19-24.07 130.61-24.12 129.73-24.12ZM161.71-6.05L154.19-6.05Q154.02-5.49 153.86-4.58 153.7-3.66 153.57-3.14 153.43-2.61 153.12-2.04 152.8-1.46 152.15-1.2 151.5-0.93 150.48-0.93L150.48-0.93 139.93-0.93 139.93-1.76Q141.23-5.64 143.7-13.67 146.18-21.7 147.55-25.83L147.55-25.83 147.55-25.78Q148.38-28.15 149.99-33.2L149.99-33.2Q150.01-33.25 150.06-33.33L150.06-33.33Q150.28-33.69 150.48-33.89L150.48-33.89 163.66-33.79Q167.03-33.79 167.37-33.2L167.37-33.2 167.37-32.57Q167.42-32.35 167.91-31.45L167.91-31.45Q170.28-24.19 171.38-20.9L171.38-20.9 171.38-20.61Q171.47-19.9 171.82-18.99 172.16-18.09 172.63-17.05 173.11-16.02 173.31-15.43L173.31-15.43 174.28-11.91Q175.14-9.08 176.8-4.35L176.8-4.35 176.8-4.39 176.8-3.91Q176.87-3.56 177.16-2.98 177.46-2.39 177.53-2.15L177.53-2.15Q177.53-1.46 177.25-1.27 176.97-1.07 176.16-1.07L176.16-1.07 164.83-1.07Q164.42-1.12 164.3-1.15 164.17-1.17 163.92-1.25 163.66-1.32 163.55-1.44 163.44-1.56 163.42-1.76L163.42-1.76 162.49-5.47Q162.39-5.93 162.29-5.99 162.2-6.05 161.71-6.05L161.71-6.05ZM155.36-14.65L155.36-14.75 155.36-14.65ZM160.73-17.68L160.73-17.68Q160.59-18.36 160.3-19.89 160.02-21.41 159.76-22.55 159.49-23.68 159.17-24.66L159.17-24.66 159.17-25.83Q158.97-26.34 158.49-26.56L158.49-26.56 158.49-26.51Q157.9-26.39 157.31-23.24L157.31-23.24 157.31-22.07Q157.27-21.9 157.09-21.75 156.92-21.61 156.92-21.58L156.92-21.58Q156.12-18.02 155.61-15.82L155.61-15.82Q155.61-15.58 155.48-14.97 155.36-14.36 155.36-14.26L155.36-14.26 161.42-14.26Q161.42-14.89 160.98-16.55L160.98-16.55 160.98-17.09Q160.95-17.16 160.84-17.37 160.73-17.58 160.73-17.68ZM203.11-33.59L211.46-33.59Q211.76-33.5 211.91-32.75 212.07-32.01 212.1-30.88 212.12-29.76 212.1-28.74 212.07-27.71 212.04-26.64 212-25.56 212-25.29L212-25.29Q211.95-24.32 211.95-22.56L211.95-22.56 211.95-19.97Q211.95-18.26 212-15.28 212.05-12.3 212.05-10.89L212.05-10.89 212.05-2Q211.95-1.17 210.68-1.17L210.68-1.17 197.01-1.17Q196.57-1.27 195.89-3.22L195.89-3.22Q195.42-4.52 194.34-7.47 193.25-10.42 192.47-12.66 191.69-14.89 191.05-16.99L191.05-16.99 191.05-17.14 191.05-16.99Q190.98-15.38 190.91-12.19 190.83-9.01 190.76-7.42L190.76-7.42 190.76-2.44Q190.76-1.71 190.59-1.43 190.42-1.15 189.68-0.98L189.68-0.98 179.63-0.98 178.55-2.05Q178.67-6.1 178.75-14.75 178.82-23.39 178.94-27.54L178.94-27.54 178.94-32.81Q179.19-33.69 179.53-33.69L179.53-33.69 179.53-33.59Q181.19-33.59 184.74-33.69 188.29-33.79 190.08-33.79L190.08-33.79 194.18-33.79Q194.2-33.79 194.25-33.76L194.25-33.76Q194.69-33.59 194.74-33.37L194.74-33.37 194.76-33.2Q195.64-30.83 196.55-28.3 197.45-25.76 198.69-22.16 199.94-18.55 200.43-17.19L200.43-17.19 200.43-20.8Q200.92-29.39 200.92-33.01L200.92-33.01Q200.92-33.4 201.45-33.5 201.99-33.59 203.11-33.59L203.11-33.59Z" opacity="1" transform="matrix(1,0,0,1,0,0)" fill="#000000" class="wordmark-text-0" data-fill-palette-color="primary" id="text-0"></path></svg></g></svg></g></svg></g></svg></g><g></g></svg></g><defs></defs></svg><rect width="395.52" height="71.39001453741932" fill="none" stroke="none" visibility="hidden"></rect></g></svg></g></svg>