<?xml version="1.0" encoding="UTF-8" standalone="no" ?>
<!DOCTYPE svg PUBLIC "-//W3C//DTD SVG 1.1//EN" "http://www.w3.org/Graphics/SVG/1.1/DTD/svg11.dtd">
<svg xmlns="http://www.w3.org/2000/svg" xmlns:xlink="http://www.w3.org/1999/xlink" version="1.1" width="1080" height="1080" viewBox="0 0 1080 1080" xml:space="preserve">
<desc>Created with Fabric.js 5.2.4</desc>
<defs>
</defs>
<rect x="0" y="0" width="100%" height="100%" fill="transparent"></rect>
<g transform="matrix(1 0 0 1 540 540)" id="b9f333a5-fb4e-4957-bb33-99cc5c1295ed"  >
<rect style="stroke: none; stroke-width: 1; stroke-dasharray: none; stroke-linecap: butt; stroke-dashoffset: 0; stroke-linejoin: miter; stroke-miterlimit: 4; fill: rgb(0,0,0); fill-rule: nonzero; opacity: 1;" vector-effect="non-scaling-stroke"  x="-540" y="-540" rx="0" ry="0" width="1080" height="1080" />
</g>
<g transform="matrix(1 0 0 1 540 540)" id="8bdea120-7788-45e8-924f-76741cf51621"  >
</g>
<g transform="matrix(0 0 0 0 0 0)"  >
<g style=""   >
</g>
</g>
<g transform="matrix(0 0 0 0 0 0)"  >
<g style=""   >
</g>
</g>
<g transform="matrix(1 0 0 1 486.92 489.97)"  >
<g style="" vector-effect="non-scaling-stroke"   >
		<g transform="matrix(1 0 0 1 54.06 47.76)"  >
<path style="stroke: none; stroke-width: 1; stroke-dasharray: none; stroke-linecap: butt; stroke-dashoffset: 0; stroke-linejoin: miter; stroke-miterlimit: 4; fill: rgb(255,255,255); fill-rule: nonzero; opacity: 1;" vector-effect="non-scaling-stroke"  transform=" translate(-161.33, -105.46)" d="M 108.12 115.12 L 108.12 113.44 L 110.5 112.88 L 110.5 97.75999999999999 L 108.12 97.19999999999999 L 108.12 95.65999999999998 L 116.10000000000001 95.51999999999998 L 116.10000000000001 97.19999999999999 L 113.44000000000001 97.75999999999999 L 113.44000000000001 103.91999999999999 L 122.82000000000001 103.91999999999999 L 122.82000000000001 97.75999999999999 L 120.16000000000001 97.19999999999999 L 120.16000000000001 95.65999999999998 L 128.14000000000001 95.51999999999998 L 128.14000000000001 97.19999999999999 L 125.76000000000002 97.75999999999999 L 125.76000000000002 112.88 L 128.14000000000001 113.44 L 128.14000000000001 115.12 L 120.16000000000001 115.12 L 120.16000000000001 113.44 L 122.82000000000001 112.88 L 122.82000000000001 106.16 L 113.44000000000001 106.16 L 113.44000000000001 112.88 L 116.10000000000001 113.44 L 116.10000000000001 115.12 L 108.12 115.12 z M 133.4208 104.62 L 133.28080000000003 101.12 C 133.28080000000003 101.12 136.36080000000004 100 138.74080000000004 100 C 141.98880000000003 100 143.92080000000004 101.12 143.92080000000004 104.34 L 143.92080000000004 112.88 L 146.16080000000005 113.44 L 146.16080000000005 114.98 L 141.82080000000005 115.12 L 141.23280000000005 113.16000000000001 C 140.28080000000006 114.11200000000001 138.60080000000005 115.4 136.64080000000004 115.4 C 133.98080000000004 115.4 132.44080000000005 113.86 132.44080000000005 111.2 C 132.44080000000005 107.98 134.96080000000006 106.86 138.88080000000005 106.86 L 141.12080000000006 106.86 L 141.12080000000006 104.62 C 141.12080000000006 102.94 140.14080000000007 102.10000000000001 138.46080000000006 102.10000000000001 C 136.78080000000006 102.10000000000001 135.63280000000006 102.52000000000001 135.63280000000006 102.52000000000001 L 135.24080000000006 104.62 L 133.42080000000007 104.62 z M 141.1208 108.68 L 139.1608 108.68 C 136.36079999999998 108.68 135.2968 109.38000000000001 135.2968 111.06 C 135.2968 112.32000000000001 136.08079999999998 113.16 137.3408 113.16 C 139.4408 113.16 141.1208 110.92 141.1208 110.92 L 141.1208 108.68 z M 152.1696 110.64 L 152.4776 113.048 C 152.4776 113.048 153.3176 113.3 154.8296 113.3 C 156.5096 113.3 157.9936 112.824 157.9936 111.088 C 157.9936 108.064 150.18159999999997 109.464 150.18159999999997 104.368 C 150.18159999999997 101.45599999999999 152.42159999999998 100 155.30559999999997 100 C 157.51759999999996 100 160.09359999999998 100.84 160.09359999999998 100.84 L 160.00959999999998 104.62 L 158.18959999999998 104.62 L 157.74159999999998 102.436 C 157.74159999999998 102.436 156.87359999999998 102.10000000000001 155.47359999999998 102.10000000000001 C 154.04559999999998 102.10000000000001 152.9816 102.548 152.9816 103.97600000000001 C 152.9816 106.97200000000001 160.7936 105.82400000000001 160.7936 110.61200000000001 C 160.7936 113.83200000000001 157.9936 115.4 154.6336 115.4 C 152.0576 115.4 150.2096 114.784 150.2096 114.784 L 150.2096 110.64 L 152.1696 110.64 z M 167.2224 110.64 L 167.5304 113.048 C 167.5304 113.048 168.3704 113.3 169.8824 113.3 C 171.5624 113.3 173.04639999999998 112.824 173.04639999999998 111.088 C 173.04639999999998 108.064 165.23439999999997 109.464 165.23439999999997 104.368 C 165.23439999999997 101.45599999999999 167.47439999999997 100 170.35839999999996 100 C 172.57039999999995 100 175.14639999999997 100.84 175.14639999999997 100.84 L 175.06239999999997 104.62 L 173.24239999999998 104.62 L 172.79439999999997 102.436 C 172.79439999999997 102.436 171.92639999999997 102.10000000000001 170.52639999999997 102.10000000000001 C 169.09839999999997 102.10000000000001 168.03439999999998 102.548 168.03439999999998 103.97600000000001 C 168.03439999999998 106.97200000000001 175.8464 105.82400000000001 175.8464 110.61200000000001 C 175.8464 113.83200000000001 173.04639999999998 115.4 169.6864 115.4 C 167.1104 115.4 165.26239999999999 114.784 165.26239999999999 114.784 L 165.26239999999999 110.64 L 167.2224 110.64 z M 181.2672 104.62 L 181.12720000000002 101.12 C 181.12720000000002 101.12 184.20720000000003 100 186.58720000000002 100 C 189.83520000000001 100 191.76720000000003 101.12 191.76720000000003 104.34 L 191.76720000000003 112.88 L 194.00720000000004 113.44 L 194.00720000000004 114.98 L 189.66720000000004 115.12 L 189.07920000000004 113.16000000000001 C 188.12720000000004 114.11200000000001 186.44720000000004 115.4 184.48720000000003 115.4 C 181.82720000000003 115.4 180.28720000000004 113.86 180.28720000000004 111.2 C 180.28720000000004 107.98 182.80720000000005 106.86 186.72720000000004 106.86 L 188.96720000000005 106.86 L 188.96720000000005 104.62 C 188.96720000000005 102.94 187.98720000000006 102.10000000000001 186.30720000000005 102.10000000000001 C 184.62720000000004 102.10000000000001 183.47920000000005 102.52000000000001 183.47920000000005 102.52000000000001 L 183.08720000000005 104.62 L 181.26720000000006 104.62 z M 188.9672 108.68 L 187.00719999999998 108.68 C 184.20719999999997 108.68 183.14319999999998 109.38000000000001 183.14319999999998 111.06 C 183.14319999999998 112.32000000000001 183.92719999999997 113.16 185.1872 113.16 C 187.28719999999998 113.16 188.9672 110.92 188.9672 110.92 L 188.9672 108.68 z M 202.508 100.28 L 202.76000000000002 102.268 C 203.43200000000002 101.68 205.644 100 207.96800000000002 100 C 211.04800000000003 100 212.448 101.96 212.448 105.04 L 212.448 112.88000000000001 L 214.548 113.58000000000001 L 214.548 115.12000000000002 L 207.828 115.12000000000002 L 207.828 113.58000000000001 L 209.648 112.88000000000001 L 209.648 105.32000000000001 C 209.648 103.36000000000001 208.948 102.38000000000001 207.128 102.38000000000001 C 204.748 102.38000000000001 203.06799999999998 104.62 203.06799999999998 104.62 L 203.06799999999998 112.88000000000001 L 204.88799999999998 113.58000000000001 L 204.88799999999998 115.12000000000002 L 197.88799999999998 115.12000000000002 L 197.88799999999998 113.58000000000001 L 200.26799999999997 112.88000000000001 L 200.26799999999997 102.52000000000001 L 197.88799999999998 101.96000000000001 L 197.88799999999998 100.42 z" stroke-linecap="round" />
</g>
		<g transform="matrix(1 0 0 1 -107.27 -57.7)"  >
<path style="stroke: none; stroke-width: 1; stroke-dasharray: none; stroke-linecap: butt; stroke-dashoffset: 0; stroke-linejoin: miter; stroke-miterlimit: 4; fill: rgb(255,255,255); fill-rule: nonzero; opacity: 1;" vector-effect="non-scaling-stroke"  transform=" translate(0, 0)" d="" stroke-linecap="round" />
</g>
</g>
</g>
</svg>